<?xml version="1.0" standalone="no"?>
<!DOCTYPE svg PUBLIC "-//W3C//DTD SVG 20010904//EN"
 "http://www.w3.org/TR/2001/REC-SVG-20010904/DTD/svg10.dtd">
<svg version="1.0" xmlns="http://www.w3.org/2000/svg"
 width="768.000000pt" height="287.000000pt" viewBox="0 0 768.000000 287.000000"
 preserveAspectRatio="xMidYMid meet">

<g transform="translate(0.000000,287.000000) scale(0.100000,-0.100000)"
fill="#000000" stroke="none">
<path d="M297 2696 l-297 -171 0 -168 c0 -158 1 -167 18 -158 10 5 143 82 296
170 l279 161 111 -64 c61 -35 193 -111 294 -169 l182 -106 0 169 0 168 -77 45
c-43 25 -175 101 -294 170 l-216 124 -296 -171z"/>
<path d="M2390 2089 l0 -301 -22 16 c-44 32 -164 86 -228 102 -86 22 -236 22
-320 0 -231 -59 -410 -245 -466 -484 -25 -106 -16 -315 18 -410 69 -193 214
-339 398 -403 81 -27 260 -37 353 -19 70 14 175 58 223 95 18 14 35 25 38 25
3 0 6 -24 8 -53 l3 -52 153 -3 152 -3 0 896 0 895 -155 0 -155 0 0 -301z
m-305 -449 c221 -36 366 -240 326 -458 -24 -131 -104 -236 -221 -290 -80 -38
-221 -43 -303 -12 -174 65 -273 250 -240 445 27 160 138 278 293 311 70 16 74
16 145 4z"/>
<path d="M3350 1914 c-88 -18 -213 -82 -282 -144 -93 -83 -171 -217 -198 -342
-17 -82 -22 -211 -11 -292 45 -317 258 -520 585 -556 232 -26 466 51 614 203
l43 44 -113 66 c-103 59 -115 64 -133 51 -112 -79 -183 -103 -301 -104 -174 0
-290 60 -352 180 -18 36 -35 82 -39 103 l-6 37 501 0 501 0 7 37 c9 49 -2 206
-21 273 -58 216 -234 390 -450 445 -74 19 -256 19 -345 -1z m322 -271 c91 -41
178 -146 178 -216 l0 -27 -341 0 -341 0 6 32 c17 88 109 178 221 217 79 28
207 25 277 -6z"/>
<path d="M4830 1902 c-72 -24 -89 -34 -155 -88 l-55 -44 0 65 0 65 -150 0
-150 0 0 -650 0 -650 150 0 150 0 0 378 c0 474 7 517 97 604 110 107 285 81
353 -52 33 -66 40 -154 40 -547 l0 -383 150 0 150 0 0 393 c0 432 5 475 59
552 16 22 50 53 76 70 41 25 57 29 119 30 60 0 78 -4 118 -28 55 -32 91 -87
107 -165 7 -33 11 -201 11 -453 l0 -400 153 3 152 3 0 445 c0 488 -3 526 -57
639 -40 84 -110 154 -195 193 -58 28 -80 32 -172 36 -173 7 -300 -35 -409
-134 l-53 -47 -16 24 c-33 48 -98 102 -152 127 -76 35 -238 42 -321 14z"/>
<path d="M0 1473 c0 -465 5 -514 56 -614 39 -78 78 -124 149 -174 115 -83 278
-124 439 -111 275 21 461 158 523 387 15 56 18 117 18 499 l0 435 -152 3 -151
3 -4 -413 c-3 -409 -3 -414 -27 -465 -26 -59 -91 -124 -148 -149 -23 -10 -65
-17 -108 -17 -114 -1 -202 50 -253 147 l-27 51 -3 423 -3 422 -155 0 -154 0 0
-427z"/>
<path d="M6240 1895 c0 -3 115 -290 256 -638 141 -348 260 -641 264 -652 5
-14 -5 -49 -35 -118 -77 -175 -115 -207 -242 -207 l-83 0 0 -141 0 -141 123 4
c107 4 129 8 185 32 82 38 173 133 230 243 35 68 692 1604 692 1619 0 2 -71 3
-157 2 l-157 -3 -182 -445 c-101 -245 -188 -456 -195 -470 -10 -23 -29 19
-198 445 l-186 470 -158 3 c-86 1 -157 0 -157 -3z"/>
</g>
</svg>
